  0
SECTION
  2
BLOCKS
  0
ENDSEC
  0
SECTION
  2
ENTITIES
  0
LINE
  8
0
 10
-20.000000
 11
-20.000000
 20
-4.500000
 21
6.500000
  0
LINE
  8
0
 10
-20.000000
 11
-2.650000
 20
6.500000
 21
6.500000
  0
LINE
  8
0
 10
-2.650000
 11
-2.650000
 20
6.500000
 21
0.000000
  0
LINE
  8
0
 10
-2.650000
 11
-2.560000
 20
0.000000
 21
-0.686000
  0
LINE
  8
0
 10
-2.560000
 11
-2.295000
 20
-0.686000
 21
-1.325000
  0
LINE
  8
0
 10
-2.295000
 11
-1.874000
 20
-1.325000
 21
-1.874000
  0
LINE
  8
0
 10
-1.874000
 11
-1.325000
 20
-1.874000
 21
-2.295000
  0
LINE
  8
0
 10
-1.325000
 11
-0.686000
 20
-2.295000
 21
-2.560000
  0
LINE
  8
0
 10
-0.686000
 11
0.000000
 20
-2.560000
 21
-2.650000
  0
LINE
  8
0
 10
0.000000
 11
0.686000
 20
-2.650000
 21
-2.560000
  0
LINE
  8
0
 10
0.686000
 11
1.325000
 20
-2.560000
 21
-2.295000
  0
LINE
  8
0
 10
1.325000
 11
1.874000
 20
-2.295000
 21
-1.874000
  0
LINE
  8
0
 10
1.874000
 11
2.295000
 20
-1.874000
 21
-1.325000
  0
LINE
  8
0
 10
2.295000
 11
2.560000
 20
-1.325000
 21
-0.686000
  0
LINE
  8
0
 10
2.560000
 11
2.650000
 20
-0.686000
 21
0.000000
  0
LINE
  8
0
 10
2.650000
 11
2.650000
 20
0.000000
 21
6.500000
  0
LINE
  8
0
 10
2.650000
 11
20.000000
 20
6.500000
 21
6.500000
  0
LINE
  8
0
 10
20.000000
 11
20.000000
 20
6.500000
 21
-11.000000
  0
LINE
  8
0
 10
20.000000
 11
17.423000
 20
-11.000000
 21
-11.000000
  0
LINE
  8
0
 10
17.423000
 11
16.000000
 20
-11.000000
 21
-8.536000
  0
LINE
  8
0
 10
16.000000
 11
12.000000
 20
-8.536000
 21
-8.536000
  0
LINE
  8
0
 10
12.000000
 11
10.577000
 20
-8.536000
 21
-11.000000
  0
LINE
  8
0
 10
10.577000
 11
8.000000
 20
-11.000000
 21
-11.000000
  0
LINE
  8
0
 10
8.000000
 11
8.000000
 20
-11.000000
 21
-4.500000
  0
LINE
  8
0
 10
8.000000
 11
-20.000000
 20
-4.500000
 21
-4.500000
  0
LINE
  8
0
 10
-15.500000
 11
-15.449000
 20
0.000000
 21
0.388000
  0
LINE
  8
0
 10
-15.449000
 11
-15.299000
 20
0.388000
 21
0.750000
  0
LINE
  8
0
 10
-15.299000
 11
-15.061000
 20
0.750000
 21
1.061000
  0
LINE
  8
0
 10
-15.061000
 11
-14.750000
 20
1.061000
 21
1.299000
  0
LINE
  8
0
 10
-14.750000
 11
-14.388000
 20
1.299000
 21
1.449000
  0
LINE
  8
0
 10
-14.388000
 11
-14.000000
 20
1.449000
 21
1.500000
  0
LINE
  8
0
 10
-14.000000
 11
-13.612000
 20
1.500000
 21
1.449000
  0
LINE
  8
0
 10
-13.612000
 11
-13.250000
 20
1.449000
 21
1.299000
  0
LINE
  8
0
 10
-13.250000
 11
-12.939000
 20
1.299000
 21
1.061000
  0
LINE
  8
0
 10
-12.939000
 11
-12.701000
 20
1.061000
 21
0.750000
  0
LINE
  8
0
 10
-12.701000
 11
-12.551000
 20
0.750000
 21
0.388000
  0
LINE
  8
0
 10
-12.551000
 11
-12.500000
 20
0.388000
 21
0.000000
  0
LINE
  8
0
 10
-12.500000
 11
-12.551000
 20
0.000000
 21
-0.388000
  0
LINE
  8
0
 10
-12.551000
 11
-12.701000
 20
-0.388000
 21
-0.750000
  0
LINE
  8
0
 10
-12.701000
 11
-12.939000
 20
-0.750000
 21
-1.061000
  0
LINE
  8
0
 10
-12.939000
 11
-13.250000
 20
-1.061000
 21
-1.299000
  0
LINE
  8
0
 10
-13.250000
 11
-13.612000
 20
-1.299000
 21
-1.449000
  0
LINE
  8
0
 10
-13.612000
 11
-14.000000
 20
-1.449000
 21
-1.500000
  0
LINE
  8
0
 10
-14.000000
 11
-14.388000
 20
-1.500000
 21
-1.449000
  0
LINE
  8
0
 10
-14.388000
 11
-14.750000
 20
-1.449000
 21
-1.299000
  0
LINE
  8
0
 10
-14.750000
 11
-15.061000
 20
-1.299000
 21
-1.061000
  0
LINE
  8
0
 10
-15.061000
 11
-15.299000
 20
-1.061000
 21
-0.750000
  0
LINE
  8
0
 10
-15.299000
 11
-15.449000
 20
-0.750000
 21
-0.388000
  0
LINE
  8
0
 10
-15.449000
 11
-15.500000
 20
-0.388000
 21
0.000000
  0
LINE
  8
0
 10
12.000000
 11
12.000000
 20
-6.500000
 21
-4.500000
  0
LINE
  8
0
 10
12.000000
 11
16.000000
 20
-4.500000
 21
-4.500000
  0
LINE
  8
0
 10
16.000000
 11
16.000000
 20
-4.500000
 21
-6.500000
  0
LINE
  8
0
 10
16.000000
 11
12.000000
 20
-6.500000
 21
-6.500000
  0
LINE
  8
0
 10
12.500000
 11
12.551000
 20
0.000000
 21
0.388000
  0
LINE
  8
0
 10
12.551000
 11
12.701000
 20
0.388000
 21
0.750000
  0
LINE
  8
0
 10
12.701000
 11
12.939000
 20
0.750000
 21
1.061000
  0
LINE
  8
0
 10
12.939000
 11
13.250000
 20
1.061000
 21
1.299000
  0
LINE
  8
0
 10
13.250000
 11
13.612000
 20
1.299000
 21
1.449000
  0
LINE
  8
0
 10
13.612000
 11
14.000000
 20
1.449000
 21
1.500000
  0
LINE
  8
0
 10
14.000000
 11
14.388000
 20
1.500000
 21
1.449000
  0
LINE
  8
0
 10
14.388000
 11
14.750000
 20
1.449000
 21
1.299000
  0
LINE
  8
0
 10
14.750000
 11
15.061000
 20
1.299000
 21
1.061000
  0
LINE
  8
0
 10
15.061000
 11
15.299000
 20
1.061000
 21
0.750000
  0
LINE
  8
0
 10
15.299000
 11
15.449000
 20
0.750000
 21
0.388000
  0
LINE
  8
0
 10
15.449000
 11
15.500000
 20
0.388000
 21
0.000000
  0
LINE
  8
0
 10
15.500000
 11
15.449000
 20
0.000000
 21
-0.388000
  0
LINE
  8
0
 10
15.449000
 11
15.299000
 20
-0.388000
 21
-0.750000
  0
LINE
  8
0
 10
15.299000
 11
15.061000
 20
-0.750000
 21
-1.061000
  0
LINE
  8
0
 10
15.061000
 11
14.750000
 20
-1.061000
 21
-1.299000
  0
LINE
  8
0
 10
14.750000
 11
14.388000
 20
-1.299000
 21
-1.449000
  0
LINE
  8
0
 10
14.388000
 11
14.000000
 20
-1.449000
 21
-1.500000
  0
LINE
  8
0
 10
14.000000
 11
13.612000
 20
-1.500000
 21
-1.449000
  0
LINE
  8
0
 10
13.612000
 11
13.250000
 20
-1.449000
 21
-1.299000
  0
LINE
  8
0
 10
13.250000
 11
12.939000
 20
-1.299000
 21
-1.061000
  0
LINE
  8
0
 10
12.939000
 11
12.701000
 20
-1.061000
 21
-0.750000
  0
LINE
  8
0
 10
12.701000
 11
12.551000
 20
-0.750000
 21
-0.388000
  0
LINE
  8
0
 10
12.551000
 11
12.500000
 20
-0.388000
 21
0.000000
  0
ENDSEC
  0
SECTION
  2
OBJECTS
  0
DICTIONARY
  0
ENDSEC
  0
EOF
