  0
SECTION
  2
BLOCKS
  0
ENDSEC
  0
SECTION
  2
ENTITIES
  0
LINE
  8
0
 10
-20
 11
-20
 20
-5.5
 21
6.5
  0
LINE
  8
0
 10
-20
 11
-1.65
 20
6.5
 21
6.5
  0
LINE
  8
0
 10
-1.65
 11
-1.65
 20
6.5
 21
0
  0
LINE
  8
0
 10
-1.65
 11
-1.543
 20
0
 21
-0.815
  0
LINE
  8
0
 10
-1.543
 11
-1.228
 20
-0.815
 21
-1.575
  0
LINE
  8
0
 10
-1.228
 11
-0.727
 20
-1.575
 21
-2.227
  0
LINE
  8
0
 10
-0.727
 11
-0.075
 20
-2.227
 21
-2.728
  0
LINE
  8
0
 10
-0.075
 11
0.685
 20
-2.728
 21
-3.043
  0
LINE
  8
0
 10
0.685
 11
1.5
 20
-3.043
 21
-3.15
  0
LINE
  8
0
 10
1.5
 11
2.315
 20
-3.15
 21
-3.043
  0
LINE
  8
0
 10
2.315
 11
3.075
 20
-3.043
 21
-2.728
  0
LINE
  8
0
 10
3.075
 11
3.727
 20
-2.728
 21
-2.227
  0
LINE
  8
0
 10
3.727
 11
4.228
 20
-2.227
 21
-1.575
  0
LINE
  8
0
 10
4.228
 11
4.543
 20
-1.575
 21
-0.815
  0
LINE
  8
0
 10
4.543
 11
4.65
 20
-0.815
 21
0
  0
LINE
  8
0
 10
4.65
 11
4.65
 20
0
 21
6.5
  0
LINE
  8
0
 10
4.65
 11
20
 20
6.5
 21
6.5
  0
LINE
  8
0
 10
20
 11
20
 20
6.5
 21
-12
  0
LINE
  8
0
 10
20
 11
17.423
 20
-12
 21
-12
  0
LINE
  8
0
 10
17.423
 11
16
 20
-12
 21
-9.536
  0
LINE
  8
0
 10
16
 11
12
 20
-9.536
 21
-9.536
  0
LINE
  8
0
 10
12
 11
10.577
 20
-9.536
 21
-12
  0
LINE
  8
0
 10
10.577
 11
8
 20
-12
 21
-12
  0
LINE
  8
0
 10
8
 11
8
 20
-12
 21
-5.5
  0
LINE
  8
0
 10
8
 11
-20
 20
-5.5
 21
-5.5
  0
LINE
  8
0
 10
-17.5
 11
-17.449
 20
2
 21
2.388
  0
LINE
  8
0
 10
-17.449
 11
-17.299
 20
2.388
 21
2.75
  0
LINE
  8
0
 10
-17.299
 11
-17.061
 20
2.75
 21
3.061
  0
LINE
  8
0
 10
-17.061
 11
-16.75
 20
3.061
 21
3.299
  0
LINE
  8
0
 10
-16.75
 11
-16.388
 20
3.299
 21
3.449
  0
LINE
  8
0
 10
-16.388
 11
-16
 20
3.449
 21
3.5
  0
LINE
  8
0
 10
-16
 11
-15.612
 20
3.5
 21
3.449
  0
LINE
  8
0
 10
-15.612
 11
-15.25
 20
3.449
 21
3.299
  0
LINE
  8
0
 10
-15.25
 11
-14.939
 20
3.299
 21
3.061
  0
LINE
  8
0
 10
-14.939
 11
-14.701
 20
3.061
 21
2.75
  0
LINE
  8
0
 10
-14.701
 11
-14.551
 20
2.75
 21
2.388
  0
LINE
  8
0
 10
-14.551
 11
-14.5
 20
2.388
 21
2
  0
LINE
  8
0
 10
-14.5
 11
-14.551
 20
2
 21
1.612
  0
LINE
  8
0
 10
-14.551
 11
-14.701
 20
1.612
 21
1.25
  0
LINE
  8
0
 10
-14.701
 11
-14.939
 20
1.25
 21
0.939
  0
LINE
  8
0
 10
-14.939
 11
-15.25
 20
0.939
 21
0.701
  0
LINE
  8
0
 10
-15.25
 11
-15.612
 20
0.701
 21
0.551
  0
LINE
  8
0
 10
-15.612
 11
-16
 20
0.551
 21
0.5
  0
LINE
  8
0
 10
-16
 11
-16.388
 20
0.5
 21
0.551
  0
LINE
  8
0
 10
-16.388
 11
-16.75
 20
0.551
 21
0.701
  0
LINE
  8
0
 10
-16.75
 11
-17.061
 20
0.701
 21
0.939
  0
LINE
  8
0
 10
-17.061
 11
-17.299
 20
0.939
 21
1.25
  0
LINE
  8
0
 10
-17.299
 11
-17.449
 20
1.25
 21
1.612
  0
LINE
  8
0
 10
-17.449
 11
-17.5
 20
1.612
 21
2
  0
LINE
  8
0
 10
12
 11
12
 20
-7.5
 21
-5.5
  0
LINE
  8
0
 10
12
 11
16
 20
-5.5
 21
-5.5
  0
LINE
  8
0
 10
16
 11
16
 20
-5.5
 21
-7.5
  0
LINE
  8
0
 10
16
 11
12
 20
-7.5
 21
-7.5
  0
LINE
  8
0
 10
14.5
 11
14.551
 20
2
 21
2.388
  0
LINE
  8
0
 10
14.551
 11
14.701
 20
2.388
 21
2.75
  0
LINE
  8
0
 10
14.701
 11
14.939
 20
2.75
 21
3.061
  0
LINE
  8
0
 10
14.939
 11
15.25
 20
3.061
 21
3.299
  0
LINE
  8
0
 10
15.25
 11
15.612
 20
3.299
 21
3.449
  0
LINE
  8
0
 10
15.612
 11
16
 20
3.449
 21
3.5
  0
LINE
  8
0
 10
16
 11
16.388
 20
3.5
 21
3.449
  0
LINE
  8
0
 10
16.388
 11
16.75
 20
3.449
 21
3.299
  0
LINE
  8
0
 10
16.75
 11
17.061
 20
3.299
 21
3.061
  0
LINE
  8
0
 10
17.061
 11
17.299
 20
3.061
 21
2.75
  0
LINE
  8
0
 10
17.299
 11
17.449
 20
2.75
 21
2.388
  0
LINE
  8
0
 10
17.449
 11
17.5
 20
2.388
 21
2
  0
LINE
  8
0
 10
17.5
 11
17.449
 20
2
 21
1.612
  0
LINE
  8
0
 10
17.449
 11
17.299
 20
1.612
 21
1.25
  0
LINE
  8
0
 10
17.299
 11
17.061
 20
1.25
 21
0.939
  0
LINE
  8
0
 10
17.061
 11
16.75
 20
0.939
 21
0.701
  0
LINE
  8
0
 10
16.75
 11
16.388
 20
0.701
 21
0.551
  0
LINE
  8
0
 10
16.388
 11
16
 20
0.551
 21
0.5
  0
LINE
  8
0
 10
16
 11
15.612
 20
0.5
 21
0.551
  0
LINE
  8
0
 10
15.612
 11
15.25
 20
0.551
 21
0.701
  0
LINE
  8
0
 10
15.25
 11
14.939
 20
0.701
 21
0.939
  0
LINE
  8
0
 10
14.939
 11
14.701
 20
0.939
 21
1.25
  0
LINE
  8
0
 10
14.701
 11
14.551
 20
1.25
 21
1.612
  0
LINE
  8
0
 10
14.551
 11
14.5
 20
1.612
 21
2
  0
ENDSEC
  0
SECTION
  2
OBJECTS
  0
DICTIONARY
  0
ENDSEC
  0
EOF
