  0
SECTION
  2
BLOCKS
  0
ENDSEC
  0
SECTION
  2
ENTITIES
  0
LINE
  8
0
 10
-94.275000
 11
-94.275000
 20
-114.450000
 21
-94.450000
  0
LINE
  8
0
 10
-94.275000
 11
-70.000000
 20
-94.450000
 21
-94.450000
  0
LINE
  8
0
 10
-70.000000
 11
-70.000000
 20
-94.450000
 21
94.450000
  0
LINE
  8
0
 10
-70.000000
 11
-94.275000
 20
94.450000
 21
94.450000
  0
LINE
  8
0
 10
-94.275000
 11
-94.275000
 20
94.450000
 21
114.450000
  0
LINE
  8
0
 10
-94.275000
 11
94.275000
 20
114.450000
 21
114.450000
  0
LINE
  8
0
 10
94.275000
 11
94.275000
 20
114.450000
 21
94.450000
  0
LINE
  8
0
 10
94.275000
 11
70.000000
 20
94.450000
 21
94.450000
  0
LINE
  8
0
 10
70.000000
 11
70.000000
 20
94.450000
 21
-94.450000
  0
LINE
  8
0
 10
70.000000
 11
94.275000
 20
-94.450000
 21
-94.450000
  0
LINE
  8
0
 10
94.275000
 11
94.275000
 20
-94.450000
 21
-114.450000
  0
LINE
  8
0
 10
94.275000
 11
-94.275000
 20
-114.450000
 21
-114.450000
  0
LINE
  8
0
 10
-90.925000
 11
-90.100000
 20
-109.450000
 21
-108.021000
  0
LINE
  8
0
 10
-90.100000
 11
-88.450000
 20
-108.021000
 21
-108.021000
  0
LINE
  8
0
 10
-88.450000
 11
-87.625000
 20
-108.021000
 21
-109.450000
  0
LINE
  8
0
 10
-87.625000
 11
-88.450000
 20
-109.450000
 21
-110.879000
  0
LINE
  8
0
 10
-88.450000
 11
-90.100000
 20
-110.879000
 21
-110.879000
  0
LINE
  8
0
 10
-90.100000
 11
-90.925000
 20
-110.879000
 21
-109.450000
  0
LINE
  8
0
 10
-90.925000
 11
-90.100000
 20
109.450000
 21
110.879000
  0
LINE
  8
0
 10
-90.100000
 11
-88.450000
 20
110.879000
 21
110.879000
  0
LINE
  8
0
 10
-88.450000
 11
-87.625000
 20
110.879000
 21
109.450000
  0
LINE
  8
0
 10
-87.625000
 11
-88.450000
 20
109.450000
 21
108.021000
  0
LINE
  8
0
 10
-88.450000
 11
-90.100000
 20
108.021000
 21
108.021000
  0
LINE
  8
0
 10
-90.100000
 11
-90.925000
 20
108.021000
 21
109.450000
  0
LINE
  8
0
 10
-44.650000
 11
-43.825000
 20
-103.450000
 21
-102.021000
  0
LINE
  8
0
 10
-43.825000
 11
-42.175000
 20
-102.021000
 21
-102.021000
  0
LINE
  8
0
 10
-42.175000
 11
-41.350000
 20
-102.021000
 21
-103.450000
  0
LINE
  8
0
 10
-41.350000
 11
-42.175000
 20
-103.450000
 21
-104.879000
  0
LINE
  8
0
 10
-42.175000
 11
-43.825000
 20
-104.879000
 21
-104.879000
  0
LINE
  8
0
 10
-43.825000
 11
-44.650000
 20
-104.879000
 21
-103.450000
  0
LINE
  8
0
 10
-44.650000
 11
-43.825000
 20
103.450000
 21
104.879000
  0
LINE
  8
0
 10
-43.825000
 11
-42.175000
 20
104.879000
 21
104.879000
  0
LINE
  8
0
 10
-42.175000
 11
-41.350000
 20
104.879000
 21
103.450000
  0
LINE
  8
0
 10
-41.350000
 11
-42.175000
 20
103.450000
 21
102.021000
  0
LINE
  8
0
 10
-42.175000
 11
-43.825000
 20
102.021000
 21
102.021000
  0
LINE
  8
0
 10
-43.825000
 11
-44.650000
 20
102.021000
 21
103.450000
  0
LINE
  8
0
 10
-35.650000
 11
-34.825000
 20
-103.450000
 21
-102.021000
  0
LINE
  8
0
 10
-34.825000
 11
-33.175000
 20
-102.021000
 21
-102.021000
  0
LINE
  8
0
 10
-33.175000
 11
-32.350000
 20
-102.021000
 21
-103.450000
  0
LINE
  8
0
 10
-32.350000
 11
-33.175000
 20
-103.450000
 21
-104.879000
  0
LINE
  8
0
 10
-33.175000
 11
-34.825000
 20
-104.879000
 21
-104.879000
  0
LINE
  8
0
 10
-34.825000
 11
-35.650000
 20
-104.879000
 21
-103.450000
  0
LINE
  8
0
 10
-35.650000
 11
-34.825000
 20
103.450000
 21
104.879000
  0
LINE
  8
0
 10
-34.825000
 11
-33.175000
 20
104.879000
 21
104.879000
  0
LINE
  8
0
 10
-33.175000
 11
-32.350000
 20
104.879000
 21
103.450000
  0
LINE
  8
0
 10
-32.350000
 11
-33.175000
 20
103.450000
 21
102.021000
  0
LINE
  8
0
 10
-33.175000
 11
-34.825000
 20
102.021000
 21
102.021000
  0
LINE
  8
0
 10
-34.825000
 11
-35.650000
 20
102.021000
 21
103.450000
  0
LINE
  8
0
 10
-23.650000
 11
-22.825000
 20
74.000000
 21
75.429000
  0
LINE
  8
0
 10
-22.825000
 11
-21.175000
 20
75.429000
 21
75.429000
  0
LINE
  8
0
 10
-21.175000
 11
-20.350000
 20
75.429000
 21
74.000000
  0
LINE
  8
0
 10
-20.350000
 11
-21.175000
 20
74.000000
 21
72.571000
  0
LINE
  8
0
 10
-21.175000
 11
-22.825000
 20
72.571000
 21
72.571000
  0
LINE
  8
0
 10
-22.825000
 11
-23.650000
 20
72.571000
 21
74.000000
  0
LINE
  8
0
 10
-18.000000
 11
-18.000000
 20
68.000000
 21
84.000000
  0
LINE
  8
0
 10
-18.000000
 11
18.000000
 20
84.000000
 21
84.000000
  0
LINE
  8
0
 10
18.000000
 11
18.000000
 20
84.000000
 21
68.000000
  0
LINE
  8
0
 10
18.000000
 11
-18.000000
 20
68.000000
 21
68.000000
  0
LINE
  8
0
 10
-1.650000
 11
-0.825000
 20
-74.000000
 21
-72.571000
  0
LINE
  8
0
 10
-0.825000
 11
0.825000
 20
-72.571000
 21
-72.571000
  0
LINE
  8
0
 10
0.825000
 11
1.650000
 20
-72.571000
 21
-74.000000
  0
LINE
  8
0
 10
1.650000
 11
0.825000
 20
-74.000000
 21
-75.429000
  0
LINE
  8
0
 10
0.825000
 11
-0.825000
 20
-75.429000
 21
-75.429000
  0
LINE
  8
0
 10
-0.825000
 11
-1.650000
 20
-75.429000
 21
-74.000000
  0
LINE
  8
0
 10
20.350000
 11
21.175000
 20
74.000000
 21
75.429000
  0
LINE
  8
0
 10
21.175000
 11
22.825000
 20
75.429000
 21
75.429000
  0
LINE
  8
0
 10
22.825000
 11
23.650000
 20
75.429000
 21
74.000000
  0
LINE
  8
0
 10
23.650000
 11
22.825000
 20
74.000000
 21
72.571000
  0
LINE
  8
0
 10
22.825000
 11
21.175000
 20
72.571000
 21
72.571000
  0
LINE
  8
0
 10
21.175000
 11
20.350000
 20
72.571000
 21
74.000000
  0
LINE
  8
0
 10
87.625000
 11
88.450000
 20
-109.450000
 21
-108.021000
  0
LINE
  8
0
 10
88.450000
 11
90.100000
 20
-108.021000
 21
-108.021000
  0
LINE
  8
0
 10
90.100000
 11
90.925000
 20
-108.021000
 21
-109.450000
  0
LINE
  8
0
 10
90.925000
 11
90.100000
 20
-109.450000
 21
-110.879000
  0
LINE
  8
0
 10
90.100000
 11
88.450000
 20
-110.879000
 21
-110.879000
  0
LINE
  8
0
 10
88.450000
 11
87.625000
 20
-110.879000
 21
-109.450000
  0
LINE
  8
0
 10
87.625000
 11
88.450000
 20
109.450000
 21
110.879000
  0
LINE
  8
0
 10
88.450000
 11
90.100000
 20
110.879000
 21
110.879000
  0
LINE
  8
0
 10
90.100000
 11
90.925000
 20
110.879000
 21
109.450000
  0
LINE
  8
0
 10
90.925000
 11
90.100000
 20
109.450000
 21
108.021000
  0
LINE
  8
0
 10
90.100000
 11
88.450000
 20
108.021000
 21
108.021000
  0
LINE
  8
0
 10
88.450000
 11
87.625000
 20
108.021000
 21
109.450000
  0
ENDSEC
  0
SECTION
  2
OBJECTS
  0
DICTIONARY
  0
ENDSEC
  0
EOF
